<svg width="32" height="32" viewBox="0 0 32 32" fill="none" xmlns="http://www.w3.org/2000/svg">
<rect width="32" height="32" rx="4" fill="#F6F6F6"/>
<path d="M3.74875 22H1.76475V10.304H3.74875L7.52475 19.616L11.3008 10.304H13.3168V22H11.3328V18.4C11.3328 16.048 11.3328 15.36 11.4448 14.528L8.46875 22H6.58075L3.62075 14.544C3.73275 15.248 3.74875 16.352 3.74875 17.808V22ZM25.0894 22.88L23.8094 21.44C22.9774 21.92 21.9854 22.192 20.8814 22.192C17.5374 22.192 15.2334 19.712 15.2334 16.144C15.2334 12.592 17.5534 10.096 20.8974 10.096C24.2414 10.096 26.5774 12.576 26.5774 16.144C26.5774 17.824 26.0654 19.264 25.1534 20.32L26.4014 21.712L25.0894 22.88ZM24.4174 16.144C24.4174 13.648 23.0414 12.064 20.8974 12.064C18.7534 12.064 17.3774 13.648 17.3774 16.144C17.3774 18.64 18.7534 20.224 20.8974 20.224C21.4734 20.224 21.9854 20.112 22.4494 19.888L20.8974 18.144L22.1934 16.976L23.7454 18.72C24.1774 18.048 24.4174 17.168 24.4174 16.144ZM29.195 22.192C28.491 22.192 27.899 21.616 27.899 20.928C27.899 20.224 28.491 19.648 29.195 19.648C29.899 19.648 30.491 20.224 30.491 20.928C30.491 21.616 29.899 22.192 29.195 22.192Z" fill="url(#paint0_linear_261_590)"/>
<defs>
<linearGradient id="paint0_linear_261_590" x1="0" y1="16" x2="32" y2="16" gradientUnits="userSpaceOnUse">
<stop stop-color="#BC6C25" stop-opacity="0.7"/>
<stop offset="0.357292" stop-color="#DDA15E"/>
<stop offset="0.711458" stop-color="#CCD5AE"/>
<stop offset="1" stop-color="#283618" stop-opacity="0.7"/>
</linearGradient>
</defs>
</svg>
